<?xml version="1.0" encoding="UTF-8"?>
<svg version="1.1" xmlns="http://www.w3.org/2000/svg" width="512" height="512">
<path d="M0 0 C1.01790619 0.00215515 2.03581238 0.0043103 3.08456421 0.00653076 C17.69363523 0.05620146 32.02575853 0.30709809 46.375 3.3125 C47.34985352 3.51117676 48.32470703 3.70985352 49.32910156 3.91455078 C97.7109774 14.03517194 141.69928269 35.9516877 177.375 70.3125 C178.3640332 71.26068604 178.3640332 71.26068604 179.37304688 72.22802734 C188.86130305 81.37247479 197.6012044 90.66984009 205.375 101.3125 C206.23306152 102.46355017 207.09113451 103.61459177 207.94921875 104.765625 C213.98736829 112.95680614 219.34595521 121.47054105 224.375 130.3125 C224.73948242 130.94430176 225.10396484 131.57610352 225.47949219 132.22705078 C247.08534998 169.97532572 256.85198095 212.74189997 256.6875 255.9375 C256.68534485 256.95540619 256.6831897 257.97331238 256.68096924 259.02206421 C256.63129854 273.63113523 256.38040191 287.96325853 253.375 302.3125 C253.07698486 303.77478027 253.07698486 303.77478027 252.77294922 305.26660156 C242.65232806 353.6484774 220.7358123 397.63678269 186.375 433.3125 C185.74287598 433.97185547 185.11075195 434.63121094 184.45947266 435.31054688 C175.31502521 444.79880305 166.01765991 453.5387044 155.375 461.3125 C154.22394983 462.17056152 153.07290823 463.02863451 151.921875 463.88671875 C143.73224019 469.92427396 135.22961724 475.30707302 126.375 480.3125 C125.66778809 480.7146875 124.96057617 481.116875 124.23193359 481.53125 C101.09654164 494.5566741 75.92537591 503.30551461 49.9375 508.625 C49.21860596 508.77235596 48.49971191 508.91971191 47.7590332 509.0715332 C33.08339502 511.86090125 18.55831162 512.66142619 3.64770508 512.62817383 C0.70811513 512.6250221 -2.2304558 512.64854926 -5.16992188 512.67382812 C-18.54306192 512.71848737 -31.43916711 511.51301542 -44.625 509.3125 C-46.33055054 509.03031616 -46.33055054 509.03031616 -48.07055664 508.74243164 C-91.33802759 500.97044532 -132.38793216 480.98345309 -165.625 452.3125 C-166.37007813 451.67828125 -167.11515625 451.0440625 -167.8828125 450.390625 C-181.38779833 438.57948485 -194.05918743 425.82889772 -204.625 411.3125 C-205.48149066 410.16255169 -206.33826433 409.01281411 -207.1953125 407.86328125 C-213.23534209 399.67315742 -218.61867614 391.16870382 -223.625 382.3125 C-224.0271875 381.60528809 -224.429375 380.89807617 -224.84375 380.16943359 C-237.8691741 357.03404164 -246.61801461 331.86287591 -251.9375 305.875 C-252.08485596 305.15610596 -252.23221191 304.43721191 -252.3840332 303.6965332 C-255.35789088 288.05024391 -255.99800362 272.57681954 -255.9375 256.6875 C-255.93534485 255.66959381 -255.9331897 254.65168762 -255.93096924 253.60293579 C-255.88129854 238.99386477 -255.63040191 224.66174147 -252.625 210.3125 C-252.42632324 209.33764648 -252.22764648 208.36279297 -252.02294922 207.35839844 C-241.90232806 158.9765226 -219.9858123 114.98821731 -185.625 79.3125 C-184.99287598 78.65314453 -184.36075195 77.99378906 -183.70947266 77.31445312 C-174.56502521 67.82619695 -165.26765991 59.0862956 -154.625 51.3125 C-153.47394983 50.45443848 -152.32290823 49.59636549 -151.171875 48.73828125 C-142.98224019 42.70072604 -134.47961724 37.31792698 -125.625 32.3125 C-124.91778809 31.9103125 -124.21057617 31.508125 -123.48193359 31.09375 C-100.34654164 18.0683259 -75.17537591 9.31948539 -49.1875 4 C-48.46860596 3.85264404 -47.74971191 3.70528809 -47.0090332 3.5534668 C-31.36274391 0.57960912 -15.88931954 -0.06050362 0 0 Z " fill="#000000" transform="translate(255.625,-0.3125)"/>
<path d="M0 0 C16.08371525 -0.91551947 31.58095872 1.16990693 44.80419922 11.14453125 C45.63177734 11.7684375 46.45935547 12.39234375 47.31201172 13.03515625 C57.13310078 21.14431236 63.17566435 31.22829418 67.24169922 43.14453125 C67.47663086 43.83087646 67.7115625 44.51722168 67.95361328 45.22436523 C72.65663921 60.26185516 72.07041535 75.79229702 71.99951172 91.35546875 C71.99577502 93.77926516 71.99293115 96.2030631 71.99093628 98.62686157 C71.98335156 104.96264927 71.96374814 111.29834322 71.94152832 117.63409424 C71.91733225 125.25932885 71.90826431 132.88459505 71.8966217 140.50985718 C71.87732021 152.05481346 71.83896158 163.5995646 71.80419922 175.14453125 C52.99419922 175.14453125 34.18419922 175.14453125 14.80419922 175.14453125 C14.77841797 167.93222656 14.75263672 160.71992188 14.72607422 153.2890625 C14.70088594 148.69983503 14.67453765 144.11067218 14.64404297 139.52148438 C14.59582822 132.24910296 14.55173826 124.97687124 14.53320312 117.7043457 C14.51797728 111.83620733 14.48342659 105.96846253 14.4358902 100.10050011 C14.42113742 97.87003706 14.41316174 95.6395178 14.41231537 93.40900612 C14.57178175 70.64047494 14.57178175 70.64047494 3.80419922 51.14453125 C-4.18554289 45.70180371 -12.81505023 45.32099412 -22.19580078 46.14453125 C-30.02688138 48.44536257 -36.50407522 53.47209815 -40.57764721 60.54321003 C-43.80603347 67.26558064 -44.92245022 72.70706342 -44.85522461 80.1237793 C-44.87095016 81.67700645 -44.87095016 81.67700645 -44.88699341 83.26161194 C-44.91551927 86.64347126 -44.90947806 90.02429304 -44.90283203 93.40625 C-44.91596061 95.76708749 -44.93126837 98.12791378 -44.94865417 100.48872375 C-44.98838072 106.6716814 -44.99868673 112.85434435 -45.00268555 119.03741455 C-45.01368785 126.4724608 -45.06155045 133.90735175 -45.1031723 141.34227753 C-45.16215424 152.60982703 -45.17456596 163.87656281 -45.19580078 175.14453125 C-64.00580078 175.14453125 -82.81580078 175.14453125 -102.19580078 175.14453125 C-102.19580078 118.71453125 -102.19580078 62.28453125 -102.19580078 4.14453125 C-83.38580078 4.14453125 -64.57580078 4.14453125 -45.19580078 4.14453125 C-44.86580078 11.40453125 -44.53580078 18.66453125 -44.19580078 26.14453125 C-43.22642578 24.82453125 -42.25705078 23.50453125 -41.25830078 22.14453125 C-32.88165504 11.49851535 -22.0646873 3.43634634 -8.57080078 0.70703125 C-5.71536464 0.37243953 -2.86782619 0.18876508 0 0 Z " fill="#FDFDFD" transform="translate(317.19580078125,191.85546875)"/>
<path d="M0 0 C18.48 0 36.96 0 56 0 C56 56.43 56 112.86 56 171 C37.52 171 19.04 171 0 171 C0 114.57 0 58.14 0 0 Z " fill="#FFFFFF" transform="translate(127,196)"/>
<path d="M0 0 C5.99207142 4.97381091 8.99285766 9.85357299 11.453125 17.234375 C12.32515165 27.42707999 11.08361503 35.7832305 4.828125 44.046875 C0.41772795 48.81822526 -6.95458657 52.77450583 -13.47290039 53.42724609 C-32.36399823 54.12809627 -32.36399823 54.12809627 -40.546875 48.234375 C-41.475 47.63625 -42.403125 47.038125 -43.359375 46.421875 C-49.79865918 39.98259082 -52.51877595 32.57150091 -53.046875 23.546875 C-52.90023468 15.75538598 -49.91094059 9.22319563 -44.90625 3.2890625 C-32.86661649 -7.90667146 -13.44602893 -9.32148018 0 0 Z " fill="#FCFCFC" transform="translate(175.546875,118.765625)"/>
</svg>
